<?xml version="1.0" encoding="UTF-8" standalone="no"?>
<!-- Created with Inkscape (http://www.inkscape.org/) -->

<svg
   version="1.1"
   id="svg1"
   width="408.43359"
   height="387.14941"
   viewBox="0 0 408.43359 387.14941"
   sodipodi:docname="logo2.svg"
   inkscape:version="1.4.2 (f4327f4, 2025-05-13)"
   xmlns:inkscape="http://www.inkscape.org/namespaces/inkscape"
   xmlns:sodipodi="http://sodipodi.sourceforge.net/DTD/sodipodi-0.dtd"
   xmlns="http://www.w3.org/2000/svg"
   xmlns:svg="http://www.w3.org/2000/svg">
  <sodipodi:namedview
     id="namedview1"
     pagecolor="#ffffff"
     bordercolor="#000000"
     borderopacity="0.25"
     inkscape:showpageshadow="2"
     inkscape:pageopacity="0.0"
     inkscape:pagecheckerboard="0"
     inkscape:deskcolor="#d1d1d1"
     inkscape:zoom="1.5618751"
     inkscape:cx="155.26209"
     inkscape:cy="-157.82312"
     inkscape:window-width="1920"
     inkscape:window-height="1051"
     inkscape:window-x="-9"
     inkscape:window-y="-9"
     inkscape:window-maximized="1"
     inkscape:current-layer="group-R5" />
  <defs
     id="defs1">
    <rect
       x="62.104839"
       y="302.20087"
       width="406.56262"
       height="131.2525"
       id="rect15" />
    <rect
       x="86.43457"
       y="318.20728"
       width="353.42136"
       height="108.84353"
       id="rect14" />
    <rect
       x="88.355339"
       y="325.25009"
       width="354.06161"
       height="87.71508"
       id="rect13" />
    <rect
       x="87.71508"
       y="325.89035"
       width="348.93958"
       height="88.355339"
       id="rect12" />
    <rect
       x="203.60143"
       y="158.14325"
       width="124.84994"
       height="97.318924"
       id="rect11" />
    <rect
       x="222.16885"
       y="145.33813"
       width="88.355339"
       height="119.72789"
       id="rect6" />
    <rect
       x="222.80911"
       y="144.69788"
       width="90.276108"
       height="124.20968"
       id="rect5" />
    <rect
       x="213.20528"
       y="170.30812"
       width="108.84353"
       height="70.428169"
       id="rect4" />
    <rect
       x="93.477386"
       y="330.37213"
       width="345.09802"
       height="76.830727"
       id="rect3" />
    <rect
       x="96.038414"
       y="339.33572"
       width="340.61624"
       height="64.025604"
       id="rect1" />
  </defs>
  <g
     id="g1"
     transform="translate(-74.75206,-68.588008)">
    <g
       id="group-R5">
      <path
         id="path6"
         d="m 2453.76,2908.17 c -116.55,116.58 -276.53,188.42 -454.05,188.42 -177.54,0 -337.52,-71.84 -452.72,-188.42 -116.55,-115.2 -188.42,-275.15 -188.42,-452.72 0,-177.56 71.87,-337.49 188.42,-454.06 115.2,-115.26 275.18,-187.07 452.72,-187.07 177.52,0 337.5,71.81 454.05,187.07 115.2,116.57 187.06,276.5 187.06,454.06 0,177.57 -71.86,337.52 -187.06,452.72 z m -23.07,-21.69 c -109.78,109.81 -262.95,177.56 -430.98,177.56 -168.1,0 -319.87,-67.75 -431,-177.56 -109.83,-111.13 -177.59,-262.94 -177.59,-431.03 0,-168.05 67.76,-321.22 177.59,-431 111.13,-109.83 262.9,-178.94 431,-178.94 168.03,0 321.2,69.11 430.98,178.94 109.83,109.78 178.94,262.95 178.94,431 0,168.09 -69.11,319.9 -178.94,431.03 z m -430.98,188.42 c 170.75,0 326.62,-69.13 437.8,-181.62 112.49,-112.52 181.6,-267.03 181.6,-437.83 0,-170.79 -69.11,-326.66 -181.6,-437.81 -111.18,-112.45 -267.05,-181.65 -437.8,-181.65 -170.81,0 -325.28,69.2 -437.82,181.65 -112.49,111.15 -181.6,267.02 -181.6,437.81 0,170.8 69.11,325.31 181.6,437.83 112.54,112.49 267.01,181.62 437.82,181.62 z m -220.96,-6.79 c 8.17,2.73 16.29,5.44 23.07,8.14 -1.36,2.71 -1.36,6.78 -1.36,9.48 0,9.48 4.06,17.63 12.19,21.69 -1.31,0 -1.31,0 -2.71,0 -9.48,0 -31.19,-9.47 -31.19,-39.31 z m -55.57,-23.03 c 13.59,6.78 28.48,13.55 43.43,18.96 -1.4,1.35 -1.4,2.71 -1.4,4.07 0,36.61 27.12,52.87 44.73,52.87 17.65,0 36.61,-9.5 37.96,-31.18 10.84,1.35 21.71,4.06 32.55,6.79 -5.42,29.82 -29.84,58.28 -74.57,58.28 -39.27,0 -85.41,-23.05 -85.41,-86.76 0,-8.13 1.4,-14.9 2.71,-23.03 z m -13.55,-5.44 h 1.41 l -1.41,1.36 z m -327.98,-378.17 c 2.7,6.8 4.06,14.93 6.76,21.7 -25.72,-1.36 -35.25,-21.7 -35.25,-31.17 0,0 0,-1.36 1.35,-2.71 4.06,8.12 10.88,12.18 20.31,12.18 2.71,0 4.12,0 6.83,0 z m -20.37,-78.6 c 1.41,10.85 4.11,21.69 6.82,31.19 -19,4.06 -27.13,21.66 -27.13,37.94 0,18.98 16.3,44.73 51.51,44.73 h 1.35 c 6.77,14.9 12.19,28.47 19.01,43.36 -5.42,1.37 -12.24,1.37 -19.01,1.37 -65.05,0 -86.71,-46.08 -86.71,-85.4 0,-42 25.73,-66.4 54.16,-73.19 z m 23.07,-341.56 c -2.7,6.77 -5.41,13.54 -6.82,20.33 h -2.71 c -9.43,0 -16.25,5.42 -20.31,12.19 -1.35,0 -1.35,-1.35 -1.35,-1.35 0,-9.48 8.12,-27.11 31.19,-31.17 z m 23.07,-58.3 c -6.82,14.91 -12.23,29.84 -19.01,44.73 -32.54,1.36 -47.44,25.76 -47.44,44.74 0,14.92 6.77,31.17 23.02,36.58 -1.3,9.5 -4.01,20.34 -5.42,31.19 -27.08,-6.79 -51.45,-32.54 -51.45,-73.19 0,-39.32 21.66,-85.41 86.71,-85.41 4.07,0 9.48,1.36 13.59,1.36 z m 393.04,-348.33 c -6.77,2.7 -13.54,4.01 -19,6.73 4.1,-18.97 20.36,-25.69 28.48,-25.69 1.4,0 1.4,0 2.71,0 -6.77,4.02 -12.19,10.83 -12.19,18.96 z m 77.28,-18.96 c -10.83,1.31 -21.71,4.02 -32.54,6.72 -5.42,-13.53 -20.32,-20.26 -35.26,-20.26 -16.25,0 -40.63,13.54 -43.33,44.73 -16.3,5.42 -31.2,12.14 -46.14,18.96 0,-4.11 0,-6.82 0,-10.83 0,-63.79 46.14,-86.76 85.41,-86.76 37.96,0 62.33,21.66 71.86,47.44 z m 341.51,25.69 c -5.41,-2.72 -12.19,-4.03 -18.96,-6.73 0,-8.13 -5.42,-14.94 -12.18,-18.96 1.35,0 1.35,0 2.7,0 8.13,0 24.38,6.72 28.44,25.69 z m 59.68,24.46 c -13.59,-6.82 -29.84,-13.54 -44.73,-18.96 -2.72,-31.19 -27.14,-44.73 -43.39,-44.73 -14.94,0 -29.83,6.73 -35.25,20.26 -10.83,-2.7 -21.66,-5.41 -32.55,-6.72 9.53,-25.78 33.9,-47.44 71.86,-47.44 39.33,0 85.41,22.97 85.41,86.76 0,4.01 0,8.12 -1.35,10.83 z m 342.89,395.77 c -1.35,-6.79 -4.07,-13.56 -5.41,-20.33 21.71,4.06 29.83,21.69 29.83,31.17 v 1.35 c -4.06,-6.77 -12.19,-12.19 -21.71,-12.19 z m 20.36,78.61 c -2.71,-10.85 -4.06,-21.69 -6.77,-31.19 16.25,-5.41 24.38,-21.66 24.38,-36.58 0,-18.98 -14.91,-43.38 -48.8,-44.74 -5.42,-14.89 -12.19,-29.82 -18.96,-44.73 5.41,0 9.47,-1.36 13.54,-1.36 65.05,0 88.11,46.09 88.11,85.41 0,40.65 -24.42,66.4 -51.5,73.19 z m -31.19,342.92 c 2.7,-6.77 5.42,-14.9 6.76,-21.7 2.72,0 4.07,0 6.78,0 9.52,0 17.65,-4.06 21.71,-12.18 0,1.35 0,2.71 0,2.71 0,9.47 -9.48,29.81 -35.25,31.17 z m -24.38,56.92 c 6.77,-14.89 13.55,-28.46 18.96,-43.36 h 1.35 c 36.62,0 52.87,-25.75 52.87,-44.73 0,-16.28 -9.49,-33.88 -27.09,-37.94 1.35,-9.5 4.06,-20.34 6.77,-31.19 28.44,6.79 54.21,31.19 54.21,73.19 0,39.32 -23.06,85.4 -88.11,85.4 -5.41,0 -12.19,0 -18.96,-1.37 z m -296.84,299.55 1.34,-1.35 -1.34,2.71 z m -92.18,36.61 c 8.12,-2.7 16.25,-5.41 24.37,-8.14 v 0 c 0,29.84 -21.67,39.31 -31.15,39.31 -1.35,0 -1.35,0 -2.7,0 6.76,-4.06 12.18,-12.21 12.18,-21.69 0,-2.7 -1.35,-6.77 -2.7,-9.48 z m -77.29,18.96 c 10.88,-1.35 21.72,-4.06 31.19,-5.41 2.72,21.68 21.67,31.18 39.32,31.18 17.61,0 43.39,-16.26 43.39,-52.87 0,-1.36 0,-2.72 0,-4.07 14.89,-6.77 29.78,-12.18 43.33,-18.96 1.4,8.13 2.75,14.9 2.75,23.03 0,63.71 -46.08,86.76 -85.41,86.76 -44.72,0 -70.5,-28.46 -74.57,-59.66 z m 904.08,-626.19 v 0 -13.57 h -100.3 c -4.06,0 -35.21,-4.06 -67.75,-40.65 l -5.42,-5.43 -4.06,6.79 c 0,0 -33.9,37.94 -184.36,39.29 0,-1.35 0,-2.71 0,-5.41 100.3,-6.77 154.52,-78.61 157.23,-101.66 0,-1.35 0,-2.71 0,-2.71 0,-6.77 -4.07,-10.86 -6.77,-12.21 -29.84,-8.12 -44.74,-32.52 -44.74,-32.52 l -16.25,-31.17 4.07,35.23 c 5.41,42.03 -1.36,74.55 -21.72,97.59 -21.67,23.05 -52.86,31.17 -70.46,33.88 0,-18.96 4.06,-37.94 9.47,-43.35 l 13.59,-10.86 h -39.31 c -1.36,-9.48 -2.72,-18.96 -4.06,-28.46 36.56,-8.13 63.69,-43.36 63.69,-86.74 0,-39.32 -20.32,-78.61 -63.69,-92.18 h 21.66 c 17.65,0 42.03,24.4 44.73,29.82 l 2.71,10.86 8.12,-6.78 c 0,-1.37 29.85,-28.48 46.1,-35.25 l 14.89,-5.42 -14.89,-6.77 c -16.25,-6.79 -46.1,-33.9 -46.1,-33.9 l -8.12,-6.77 -2.71,9.48 c -2.7,5.44 -27.08,31.19 -44.73,31.19 h -31.15 c 37.92,-20.33 71.82,-66.45 71.82,-119.33 0,-73.12 -59.63,-107.03 -103.01,-107.03 -48.8,0 -82.7,32.5 -82.7,81.35 0,20.26 8.12,37.91 23.07,50.14 14.9,12.17 36.56,17.59 56.93,12.17 31.14,-5.42 47.44,-23 47.44,-50.17 0,-21.67 -12.19,-35.21 -31.19,-37.92 -1.36,-1.4 -2.72,-1.4 -4.07,-1.4 h -1.35 v 0 0 c -13.55,1.4 -23.03,12.24 -23.03,24.46 0,13.55 10.84,24.38 24.38,24.38 9.48,0 17.6,-5.41 21.71,-13.54 0,1.31 0,2.71 0,4.02 0,12.23 -4.11,31.19 -36.61,38 -16.3,2.72 -33.9,0 -46.08,-10.83 -10.84,-9.53 -17.61,-23.06 -17.61,-39.31 0,-40.72 28.44,-67.8 69.11,-67.8 36.61,0 89.46,29.79 89.46,93.48 0,65.12 -52.85,111.18 -92.16,116.62 -6.78,0 -13.55,0 -20.37,0 -31.15,-60.98 -71.82,-116.62 -119.26,-163.97 -46.09,-46.13 -98.95,-85.45 -157.23,-116.65 0,-5.41 0,-10.83 1.36,-17.55 4.06,-38.02 50.15,-90.88 115.19,-90.88 65.1,0 93.54,51.55 93.54,89.47 0,40.73 -27.08,69.11 -67.76,69.11 -16.25,0 -29.84,-6.72 -39.31,-17.55 -9.48,-12.24 -13.55,-29.89 -9.48,-47.45 5.42,-31.19 24.37,-35.3 36.61,-35.3 1.35,0 2.7,0 4.06,0 -8.13,4.11 -13.58,12.24 -13.58,21.76 0,13.54 10.87,24.37 24.41,24.37 12.19,0 23.03,-10.83 24.37,-23.06 v 0 c 0,0 0,0 0,-1.31 v 0 c 0,-1.4 0,-4.11 0,-5.41 -4.06,-17.66 -17.59,-29.89 -39.26,-29.89 -27.13,0 -44.74,16.25 -50.16,46.14 -4.06,21.66 0,43.33 12.19,58.27 12.19,14.85 29.79,21.67 50.15,21.67 48.8,0 81.3,-32.5 81.3,-81.35 0,-43.33 -32.5,-103.01 -107.08,-103.01 -52.85,0 -98.94,33.9 -119.25,71.82 v -31.1 c 0,-19.05 25.73,-43.43 31.19,-44.73 l 10.84,-2.71 -8.13,-8.13 c 0,-1.4 -27.14,-29.88 -33.9,-46.13 l -6.77,-14.94 -5.42,14.94 c -5.42,13.54 -27.13,37.92 -33.9,46.13 l -8.12,8.13 10.83,2.71 c 5.42,1.3 31.19,25.68 31.19,44.73 v 21.67 c -14.94,-43.43 -54.21,-63.69 -93.54,-63.69 -42.02,0 -74.57,24.37 -85.4,58.27 -9.48,-1.4 -18.96,-2.71 -28.43,-4.1 v -35.22 l -12.24,14.85 c -5.42,5.51 -24.36,8.22 -43.31,9.53 2.7,-18.96 10.83,-48.75 35.18,-70.51 21.71,-20.27 55.57,-28.39 97.6,-21.67 l 35.26,4.11 -31.2,-17.65 c -1.35,0 -25.73,-13.54 -33.85,-43.34 -1.36,-4.11 -5.47,-6.81 -12.24,-6.81 0,0 -1.36,0 -2.7,0 -23.03,2.7 -94.87,55.56 -101.65,155.87 -1.34,0 -2.7,0 -5.41,0 1.35,-149.06 39.32,-182.95 40.68,-182.95 l 5.39,-5.42 -5.39,-5.42 c -36.61,-31.19 -39.33,-63.69 -40.68,-66.5 v 0 0 h -13.54 v 0 0 c 0,2.81 -2.71,35.31 -39.32,66.5 l -5.42,5.42 5.42,5.42 c 1.36,0 39.32,33.89 39.32,182.95 -1.35,0 -2.71,0 -4.06,0 -6.82,-100.31 -78.64,-153.17 -101.66,-155.87 -1.35,0 -2.76,0 -4.06,0 -5.42,0 -9.53,2.7 -10.84,6.81 -8.12,29.8 -33.9,43.34 -33.9,43.34 l -31.19,17.65 35.26,-4.11 c 41.97,-6.72 74.57,1.4 97.59,21.67 24.42,21.76 32.55,51.55 35.26,70.51 -20.36,-1.31 -37.97,-4.02 -43.43,-9.53 l -12.14,-14.85 v 35.22 c -9.53,1.39 -19.01,2.7 -29.84,4.1 -9.48,-33.9 -42.03,-58.27 -84.05,-58.27 -39.27,0 -78.59,20.26 -93.54,63.69 v -21.67 c 0,-19.05 25.78,-43.43 31.2,-44.73 l 10.83,-2.71 -8.12,-8.13 c 0,-1.4 -27.09,-29.88 -33.91,-46.13 l -6.77,-14.94 -5.41,14.94 c -6.78,16.25 -33.86,44.73 -33.86,46.13 l -8.17,8.13 10.88,2.71 c 5.42,1.3 29.79,25.68 29.79,44.73 v 31.1 c -18.96,-37.92 -65.05,-71.82 -117.95,-71.82 -74.53,0 -107.03,59.68 -107.03,103.01 0,48.85 32.5,81.35 81.3,81.35 20.31,0 37.96,-6.82 50.15,-21.67 12.19,-14.94 16.3,-36.61 12.19,-58.27 -6.73,-29.89 -24.38,-46.14 -51.46,-46.14 -20.36,0 -35.26,12.23 -38.01,29.89 0,1.3 0,4.01 0,5.41 v 0 c 0,1.31 0,1.31 0,1.31 v 0 c 1.4,12.23 10.88,23.06 24.42,23.06 13.59,0 24.42,-10.83 24.42,-24.37 0,-9.52 -5.41,-17.65 -13.54,-21.76 1.31,0 2.71,0 2.71,0 13.54,0 31.14,4.11 37.92,35.3 4.06,17.56 0,35.21 -9.48,47.45 -9.48,10.83 -23.02,17.55 -39.32,17.55 -40.67,0 -67.76,-28.38 -67.76,-69.11 0,-37.92 28.49,-89.47 93.49,-89.47 65.09,0 111.18,52.86 115.24,90.88 1.36,6.72 1.36,12.14 1.36,17.55 -58.28,31.2 -112.49,70.52 -158.58,116.65 -47.44,47.35 -88.12,102.99 -119.31,163.97 -6.72,0 -13.54,0 -20.31,0 -37.97,-5.44 -92.13,-51.5 -92.13,-116.62 0,-63.69 52.86,-93.48 89.42,-93.48 42.02,0 69.16,27.08 69.16,67.8 0,16.25 -5.42,29.78 -17.65,39.31 -12.19,10.83 -28.49,13.55 -46.09,10.83 -32.55,-6.81 -36.57,-25.77 -36.57,-38 0,-1.31 0,-2.71 1.31,-4.02 4.11,8.13 12.24,13.54 20.36,13.54 13.54,0 24.38,-10.83 24.38,-24.38 0,-12.22 -9.48,-23.06 -21.67,-24.46 v 0 h -1.36 c 0,0 0,0 -1.35,0 -1.35,0 -2.71,0 -4.06,1.4 -19.01,2.71 -29.84,16.25 -29.84,37.92 0,27.17 14.94,44.75 46.09,50.17 21.71,5.42 42.02,0 58.32,-12.17 13.54,-12.23 21.67,-29.88 21.67,-50.14 0,-48.85 -32.55,-81.35 -82.7,-81.35 -42.03,0 -103.01,33.91 -103.01,107.03 0,52.88 33.85,99 71.86,119.33 h -31.19 c -17.65,0 -42.03,-25.75 -44.74,-31.19 l -2.7,-9.48 -8.13,6.77 c 0,0 -28.48,27.11 -46.09,33.9 l -14.89,6.77 14.89,5.42 c 17.61,6.77 46.09,33.88 46.09,35.25 l 8.13,6.78 2.7,-10.86 c 2.71,-5.42 27.09,-29.82 44.74,-29.82 h 21.67 c -43.34,13.57 -62.34,52.86 -62.34,92.18 0,43.38 25.73,78.61 62.34,86.74 -1.36,9.5 -2.71,18.98 -4.06,28.46 h -39.28 l 13.54,10.86 c 6.78,5.41 9.49,24.39 10.84,43.35 -18.96,-2.71 -50.15,-10.83 -70.51,-33.88 -20.32,-23.04 -28.44,-55.56 -23.02,-97.59 l 5.41,-35.23 -17.6,31.17 c 0,0 -14.94,24.4 -43.38,32.52 -4.06,1.35 -8.13,5.44 -8.13,12.21 0,0 0,1.36 0,2.71 4.07,23.05 56.93,94.89 157.23,101.66 0,2.7 0,4.06 0,5.41 -150.45,-1.35 -182.95,-39.29 -184.36,-39.29 l -4.06,-6.79 -5.41,5.43 c -32.55,36.59 -63.7,40.65 -66.41,40.65 H 976.367 v 0 13.57 0 h 100.303 c 2.71,0 33.86,2.71 66.41,39.3 l 5.41,5.43 4.06,-5.43 c 1.41,0 33.91,-37.94 184.36,-39.3 0,1.36 0,2.71 0,4.06 -100.3,6.77 -153.16,78.61 -157.23,103.01 0,0 0,1.36 0,2.71 0,6.77 4.07,9.48 8.13,10.86 28.44,8.12 43.38,33.88 43.38,33.88 l 17.6,31.17 -5.41,-35.24 c -5.42,-42.02 2.7,-74.55 23.02,-97.59 20.36,-24.4 51.55,-31.17 70.51,-33.88 -1.35,18.96 -4.06,37.94 -10.84,42 l -13.54,12.22 h 41.98 c 0,9.47 2.76,18.95 4.06,27.1 -37.91,8.13 -65.04,43.36 -65.04,86.74 0,39.32 19,78.61 62.34,93.53 h -21.67 c -17.65,0 -42.03,-24.39 -44.74,-31.17 l -2.7,-9.5 -8.13,6.79 c -8.12,8.13 -32.55,28.46 -46.09,33.88 l -14.89,6.77 14.89,5.42 c 17.61,6.79 46.09,33.9 46.09,35.26 l 8.13,6.77 2.7,-10.84 c 2.71,-5.44 27.09,-29.84 44.74,-29.84 h 31.19 c -38.01,20.34 -71.86,65.07 -71.86,117.93 0,74.56 60.98,107.08 103.01,107.08 50.15,0 82.7,-32.52 82.7,-81.32 0,-20.34 -8.13,-37.94 -21.67,-48.8 -16.3,-13.54 -36.61,-17.63 -58.32,-13.54 -31.15,6.77 -46.09,24.4 -46.09,51.51 0,20.31 10.83,35.23 29.84,37.94 1.35,0 2.71,0 4.06,0 1.35,0 1.35,0 1.35,0 h 1.36 v 0 c 12.19,0 21.67,-10.84 21.67,-24.4 0,-13.54 -10.84,-24.4 -24.38,-24.4 -8.12,0 -16.25,5.42 -20.36,13.56 -1.31,-1.35 -1.31,-1.35 -1.31,-2.7 0,-13.57 4.02,-31.2 36.57,-37.97 17.6,-4.06 33.9,0 46.09,9.5 12.23,9.48 17.65,23.03 17.65,39.3 0,40.67 -27.14,69.13 -69.16,69.13 -36.56,0 -89.42,-29.81 -89.42,-94.89 0,-65.04 54.16,-111.13 92.13,-115.2 10.88,-1.37 19,-1.37 27.13,0 31.19,55.58 69.11,105.73 112.49,150.44 46.09,46.09 98.95,85.4 157.22,115.22 1.36,9.48 1.36,18.98 0,31.17 -4.06,37.96 -50.15,90.82 -115.24,90.82 -65,0 -93.49,-51.5 -93.49,-89.47 0,-40.65 27.09,-67.75 67.76,-67.75 16.3,0 29.84,5.41 39.32,16.25 9.48,12.21 13.54,29.82 9.48,47.44 -6.78,31.17 -24.38,35.23 -37.92,35.23 0,0 -1.4,0 -2.71,0 8.13,-4.06 13.54,-12.18 13.54,-21.66 0,-13.57 -10.83,-24.41 -24.42,-24.41 -13.54,0 -23.02,10.84 -24.42,23.05 v 0 c 0,0 0,0 0,1.36 v 0 c 0,1.35 0,4.06 0,5.41 2.75,17.63 17.65,29.82 38.01,29.82 27.08,0 44.73,-16.28 51.46,-46.09 4.11,-21.69 0,-43.36 -12.19,-58.28 -12.19,-14.92 -29.84,-21.69 -50.15,-21.69 -48.8,0 -81.3,32.53 -81.3,81.32 0,43.38 32.5,103.01 107.03,103.01 52.9,0 98.99,-33.87 117.95,-71.84 v 31.2 c 0,18.95 -24.37,43.35 -29.79,44.73 l -10.88,2.71 8.17,8.12 c 0,1.36 27.08,29.82 33.86,46.09 l 5.41,14.9 6.77,-14.9 c 6.82,-16.27 33.91,-44.73 33.91,-46.09 l 8.12,-8.12 -10.83,-2.71 c -5.42,-1.38 -31.2,-25.78 -31.2,-44.73 v -21.69 c 14.95,43.38 54.27,63.69 93.54,63.69 46.08,0 81.34,-29.82 86.76,-70.46 9.48,1.35 18.96,2.7 27.13,4.06 v 47.44 l 12.14,-14.92 c 5.46,-5.42 23.07,-8.12 43.43,-9.48 -2.71,18.96 -10.84,48.8 -35.26,70.47 -23.02,20.33 -55.62,28.48 -97.59,21.69 l -35.26,-4.07 31.19,17.63 c 0,0 25.78,13.54 33.9,43.38 1.31,4.06 5.42,6.77 10.84,6.77 1.3,0 2.71,0 4.06,0 23.02,-2.71 94.84,-55.57 101.66,-155.87 1.35,0 2.71,0 4.06,0 0,149.1 -37.96,182.98 -39.32,182.98 l -5.42,5.42 5.42,5.41 c 36.61,32.55 39.32,63.72 39.32,66.43 v 100.3 0 h 13.54 v 0 -100.3 c 1.35,-2.71 4.07,-33.88 40.68,-66.43 l 5.39,-5.41 -5.39,-5.42 c -1.36,0 -39.33,-33.88 -40.68,-182.98 2.71,0 4.07,0 5.41,0 6.78,100.3 78.62,153.16 101.65,155.87 1.34,0 2.7,0 2.7,0 6.77,0 10.88,-2.71 12.24,-6.77 8.12,-29.84 32.5,-43.38 33.85,-43.38 l 31.2,-17.63 -35.26,4.07 c -42.03,6.79 -75.89,-1.36 -97.6,-21.69 -24.35,-21.67 -32.48,-51.51 -35.18,-70.47 18.95,1.36 37.89,4.06 43.31,9.48 l 12.24,14.92 v -47.44 c 8.12,-1.36 17.59,-2.71 25.72,-4.06 6.78,40.64 42.03,70.46 88.11,70.46 39.33,0 78.6,-20.31 93.54,-63.69 v 21.69 c 0,18.95 -25.77,43.35 -31.19,44.73 l -10.83,2.71 8.12,8.12 c 6.77,8.13 28.48,32.53 33.9,46.09 l 5.42,14.9 6.77,-14.9 c 6.76,-16.27 33.9,-44.73 33.9,-46.09 l 8.13,-8.12 -10.84,-2.71 c -5.46,-1.38 -31.19,-25.78 -31.19,-44.73 v -31.2 c 20.31,37.97 66.4,71.84 119.25,71.84 74.58,0 107.08,-59.63 107.08,-103.01 0,-48.79 -32.5,-81.32 -81.3,-81.32 -20.36,0 -37.96,6.77 -50.15,21.69 -12.19,14.92 -16.25,36.59 -12.19,58.28 5.42,29.81 23.03,46.09 50.16,46.09 21.67,0 35.2,-12.19 39.26,-29.82 0,-1.35 0,-4.06 0,-5.41 v 0 c 0,-1.36 0,-1.36 0,-1.36 v 0 c -1.34,-12.21 -12.18,-23.05 -24.37,-23.05 -13.54,0 -24.41,10.84 -24.41,24.41 0,9.48 5.45,17.6 13.58,21.66 -1.36,0 -2.71,0 -4.06,0 -12.24,0 -31.19,-4.06 -36.61,-35.23 -4.07,-17.62 0,-35.23 9.48,-47.44 9.47,-10.84 23.06,-16.25 39.31,-16.25 40.68,0 67.76,27.1 67.76,67.75 0,37.97 -28.44,89.47 -93.54,89.47 -65.04,0 -111.13,-52.86 -115.19,-90.82 -1.36,-12.19 -1.36,-21.69 0,-31.17 58.28,-31.17 109.78,-69.13 155.87,-115.22 44.73,-44.71 82.7,-94.86 112.49,-150.44 8.12,-1.37 17.65,-1.37 27.14,0 39.31,4.07 92.16,50.16 92.16,115.2 0,65.08 -52.85,94.89 -89.46,94.89 -40.67,0 -69.11,-28.46 -69.11,-69.13 0,-16.27 6.77,-29.82 17.61,-39.3 12.18,-9.5 29.78,-13.56 46.08,-9.5 32.5,6.77 36.61,24.4 36.61,37.97 0,1.35 0,1.35 0,2.7 -4.11,-8.14 -12.23,-13.56 -21.71,-13.56 -13.54,0 -24.38,10.86 -24.38,24.4 0,13.56 9.48,24.4 23.03,24.4 v 0 0 h 1.35 c 1.35,0 2.71,0 4.07,0 19,-2.71 31.19,-17.63 31.19,-37.94 0,-27.11 -16.3,-44.74 -47.44,-51.51 -20.37,-4.09 -42.03,0 -56.93,13.54 -14.95,10.86 -23.07,28.46 -23.07,48.8 0,48.8 33.9,81.32 82.7,81.32 43.38,0 103.01,-32.52 103.01,-107.08 0,-52.86 -33.9,-97.59 -71.82,-117.93 h 31.15 c 17.65,0 42.03,24.4 44.73,29.84 l 2.71,10.84 8.12,-6.77 c 0,-1.36 29.85,-28.47 46.1,-35.26 l 14.89,-5.42 -14.89,-6.77 c -13.55,-5.42 -37.97,-25.75 -46.1,-33.88 l -8.12,-6.79 -2.71,9.5 c -2.7,6.78 -27.08,31.17 -44.73,31.17 h -21.66 c 43.37,-14.92 63.69,-54.21 63.69,-93.53 0,-43.38 -27.13,-78.61 -65.05,-86.74 1.36,-8.15 2.7,-17.63 4.06,-27.1 h 40.67 L 2673.32,2530 c -5.41,-4.06 -9.47,-23.04 -9.47,-42 17.6,2.71 48.79,9.48 70.46,33.88 20.36,23.04 27.13,55.57 21.72,97.59 l -4.07,35.24 16.25,-31.17 c 0,0 14.9,-25.76 44.74,-33.88 2.7,-1.38 6.77,-4.09 6.77,-10.86 0,-1.35 0,-2.71 0,-2.71 -2.71,-24.4 -56.93,-96.24 -157.23,-103.01 0,-1.35 0,-2.7 0,-4.06 150.46,1.36 184.36,39.3 184.36,39.3 l 4.06,5.43 5.42,-5.43 c 32.54,-36.59 63.69,-39.3 67.75,-39.3 h 100.3"
         style="fill:#221c17;fill-opacity:1;fill-rule:evenodd;stroke:none"
         transform="matrix(0.13333333,0,0,-0.13333333,0,533.33333)" />
      <path
         id="path7"
         d="m 2693.68,1608.3 c 0,0 23.02,-6.73 39.32,-18.96 28.44,20.36 35.21,17.65 52.86,21.67 -17.65,5.42 -24.42,2.7 -52.86,23.06 -28.49,-20.36 -33.9,-17.64 -52.9,-23.06 z m 505.58,77.23 h 1.36 c -40.68,16.34 -39.32,-32.5 -58.29,-14.85 -9.52,9.44 -27.12,9.44 -42.02,-4.11 2.71,0 39.32,-16.25 55.57,-42.02 1.36,8.13 4.06,8.13 8.12,1.4 5.42,28.48 33.91,58.28 35.26,59.58 z m -44.74,-71.82 c -10.83,-25.77 66.41,-77.24 124.68,-48.75 14.95,6.73 24.42,18.97 33.91,32.5 v 0 c -18.96,-27.08 -47.45,-42.02 -81.35,-31.19 -39.27,12.24 -41.97,55.57 -66.4,56.97 -5.42,0 -9.48,-4.11 -10.84,-9.53 z m -428.34,38.01 c -31.14,-23.07 -63.69,-35.29 -79.94,-40.71 16.25,-5.42 48.8,-17.56 79.94,-39.32 32.55,21.76 65.1,33.9 81.35,39.32 -16.25,5.42 -48.8,17.64 -81.35,40.71 z M 1305.72,1608.3 c 0,0 -21.67,-6.73 -39.32,-18.96 -28.44,20.36 -35.21,17.65 -52.86,21.67 17.65,5.42 24.42,2.7 52.86,23.06 28.48,-20.36 35.26,-17.64 52.86,-23.06 z m -505.532,77.23 h -1.403 c 40.672,16.34 39.317,-32.5 58.278,-14.85 10.832,9.44 28.484,9.44 42.023,-4.11 -2.707,0 -39.316,-16.25 -55.566,-42.02 -1.356,8.13 -4.063,8.13 -8.125,1.4 -5.418,28.48 -33.903,58.28 -35.207,59.58 z m 44.683,-71.82 c 10.883,-25.77 -65.047,-77.24 -124.726,-48.75 -14.848,6.73 -24.375,18.97 -33.852,32.5 v 0 c 19.004,-27.08 47.441,-42.02 81.301,-31.19 39.316,12.24 43.426,55.57 66.445,56.97 5.418,0 9.481,-4.11 10.832,-9.53 z m 428.339,38.01 c 32.51,-23.07 63.7,-35.29 79.95,-40.71 -16.25,-5.42 -47.44,-17.56 -79.95,-39.32 -32.54,21.76 -63.69,33.9 -81.34,39.32 17.65,5.42 48.8,17.64 81.34,40.71 z m -609.94,-50.15 c 12.191,-85.45 111.14,-89.47 168.062,-48.85 54.215,39.33 96.242,113.85 149.098,107.12 63.7,-8.12 65.05,-103 2.711,-98.99 -56.926,2.71 -48.801,75.93 -2.711,67.8 31.2,-5.41 17.605,-44.72 -2.703,-35.2 -4.067,2.7 -6.821,5.42 -6.821,9.43 13.586,-16.25 31.194,18.96 8.172,18.96 -29.84,0 -13.59,-52.87 17.602,-35.21 31.2,18.96 1.355,63.69 -36.606,51.46 -29.797,-8.13 -37.922,-47.35 -20.312,-71.82 -13.547,6.82 -25.735,13.54 -40.676,13.54 -21.664,0 -33.898,-12.13 -33.898,-24.37 v 0 c -2.708,-17.66 27.125,-20.36 27.125,-1.31 0,6.72 -6.766,13.55 -14.891,13.55 29.789,24.37 81.344,-32.6 126.078,-18.97 25.73,8.13 41.98,33.81 40.63,59.59 h 40.66 c 37.97,0 43.39,-44.74 10.84,-44.74 -9.48,0 -12.19,4.12 -13.54,10.83 6.77,-9.43 23.02,-5.42 23.02,6.82 0,8.13 -6.77,13.55 -13.54,12.24 v 0 c -23.07,0 -20.36,-36.61 4.06,-36.61 32.55,0 35.26,35.21 12.19,51.46 h 73.22 c 2.71,0 50.15,-14.85 92.17,-44.74 42.03,29.89 88.07,44.74 92.18,44.74 H 1997 v 6.82 h -631.61 c -4.11,0 -50.15,14.84 -92.18,44.72 -42.02,-29.88 -89.46,-44.72 -92.17,-44.72 h -73.22 c 23.07,14.84 20.36,51.45 -12.19,51.45 -24.42,0 -27.13,-37.92 -4.06,-37.92 v 0 c 16.25,0 17.65,25.78 1.35,25.78 -4.06,0 -8.13,-2.71 -10.83,-5.42 2.7,21.67 35.25,8.13 35.25,-9.52 0,-6.81 -9.52,-24.37 -32.55,-24.37 h -40.66 c -8.13,58.27 -75.931,86.75 -138.228,31.19 -51.55,-46.13 -90.867,-113.94 -170.808,-101.71 -77.239,12.24 -77.239,131.5 0,128.79 78.633,-1.4 63.691,-103.01 4.062,-88.17 -35.261,9.54 -29.84,67.81 9.477,62.4 -18.961,-5.42 -14.899,-33.91 4.109,-33.91 29.793,0 18.957,46.13 -13.586,42.03 -52.863,-6.73 -39.273,-89.47 19.004,-81.35 65.047,8.13 58.278,109.84 -21.715,112.54 -48.8,2.71 -79.992,-40.62 -73.175,-85.36 z m 2674.21,0 c -13.54,-85.45 -112.49,-89.47 -168.06,-48.85 -55.56,39.33 -97.59,113.85 -150.46,107.12 -63.69,-8.12 -65.04,-103 -1.34,-98.99 55.56,2.71 47.44,75.93 1.34,67.8 -31.19,-5.41 -16.25,-44.72 4.07,-35.2 2.71,2.7 5.42,5.42 6.77,9.43 -14.9,-16.25 -31.15,18.96 -9.48,18.96 29.84,0 14.89,-52.87 -16.25,-35.21 -32.55,18.96 -2.7,63.69 35.26,51.46 29.79,-8.13 37.92,-47.35 20.31,-71.82 13.54,6.82 25.73,13.54 40.67,13.54 23.02,0 33.86,-12.13 33.86,-24.37 v 0 c 2.71,-17.66 -25.73,-20.36 -25.73,-1.31 0,6.72 5.42,13.55 13.54,13.55 -29.79,24.37 -81.3,-32.6 -126.03,-18.97 -25.78,8.13 -42.03,33.81 -40.68,59.59 h -40.67 c -36.61,0 -42.02,-44.74 -10.83,-44.74 9.47,0 12.19,4.12 13.53,10.83 -6.76,-9.43 -23.01,-5.42 -23.01,6.82 0,8.13 6.76,13.55 13.54,12.24 v 0 c 23.02,0 21.67,-36.61 -4.06,-36.61 -32.55,0 -35.25,35.21 -12.19,51.46 h -71.86 c -4.07,0 -51.51,-14.85 -93.54,-44.74 -40.62,29.89 -88.06,44.74 -92.13,44.74 h -631.63 v 6.82 h 631.63 c 4.07,0 51.51,14.84 92.13,44.72 42.03,-29.88 89.47,-44.72 93.54,-44.72 h 71.86 c -23.06,14.84 -20.36,51.45 12.19,51.45 25.73,0 27.08,-37.92 4.06,-37.92 v 0 c -16.25,0 -17.61,25.78 -1.36,25.78 5.42,0 8.13,-2.71 10.83,-5.42 -2.7,21.67 -33.89,8.13 -33.89,-9.52 0,-6.81 8.17,-24.37 31.19,-24.37 h 42.03 c 8.13,58.27 75.88,86.75 136.91,31.19 51.51,-46.13 92.13,-113.94 170.77,-101.71 77.23,12.24 78.64,131.5 0,128.79 -78.64,-1.4 -63.69,-103.01 -2.71,-88.17 33.9,9.54 28.49,67.81 -9.48,62.4 17.61,-5.42 13.54,-33.91 -5.42,-33.91 -28.48,0 -19,46.13 13.54,42.03 52.87,-6.73 39.32,-89.47 -17.6,-81.35 -65.09,8.13 -59.67,109.84 21.67,112.54 48.8,2.71 78.64,-40.62 73.17,-85.36 v 0"
         style="fill:#221c17;fill-opacity:1;fill-rule:evenodd;stroke:none"
         transform="matrix(0.13333333,0,0,-0.13333333,0,533.33333)" />
      <path
         id="path8"
         d="m 3329.36,898.051 c -18.96,-4.02 -31.15,-24.379 -31.15,-24.379 l -1.35,-2.703 -2.71,2.703 c -25.78,23.078 -78.64,24.379 -79.99,24.379 H 3201.97 2833.26 785.242 c -1.355,0 -52.859,-1.301 -79.945,-24.379 l -1.402,-2.703 -1.301,2.703 c 0,0 -13.59,20.359 -32.551,24.379 l -8.172,2.711 8.172,2.707 c 18.961,5.422 32.551,24.371 32.551,24.371 l 1.301,2.711 1.402,-1.301 c 27.086,-24.379 78.59,-25.781 79.945,-25.781 h 2048.018 368.71 12.19 c 1.35,0 54.21,1.402 79.99,25.781 l 2.71,1.301 1.35,-2.711 c 0,0 12.19,-18.949 31.15,-24.371 l 8.12,-2.707 -8.12,-2.711"
         style="fill:#221c17;fill-opacity:1;fill-rule:evenodd;stroke:none"
         transform="matrix(0.13333333,0,0,-0.13333333,0,533.33333)" />
      <path
         id="path9"
         d="m 1431.8,1863.16 c 0,2.71 0,4.02 -1.36,5.42 0,1.3 -1.35,1.3 -4.06,1.3 h -18.96 v -18.95 h 13.54 c 2.71,0 4.02,1.4 5.42,1.4 1.31,1.3 1.31,2.71 1.31,5.41 h 4.11 v -17.64 h -4.11 c 0,4.11 -1.31,5.41 -2.71,5.41 -1.31,1.4 -2.71,1.4 -5.42,1.4 h -12.14 v -14.94 c 0,-2.71 0,-2.71 1.31,-4.11 0,0 1.4,-1.31 2.71,-1.31 h 13.54 c 2.71,0 5.46,1.31 6.82,2.71 1.35,1.31 2.7,2.71 2.7,6.73 h 4.06 l -1.35,-13.55 h -51.5 v 2.72 h 4.06 c 4.06,0 6.77,2.7 6.77,6.81 v 33.9 c 0,2.71 -1.35,4.01 -2.71,4.01 -1.35,1.41 -2.71,1.41 -5.42,1.41 v 0 4.01 h 46.09 l 1.36,-12.14 z m -52.86,-25.78 h 4.06 c -1.35,-5.41 -2.71,-10.83 -5.47,-14.94 0,0 -2.71,0 -4.01,0 -1.4,0 -4.11,0 -6.82,0 -2.71,-1.31 -5.42,-1.31 -8.13,-1.31 -5.41,0 -10.83,1.31 -14.89,2.72 -5.42,2.7 -9.48,6.72 -12.19,10.83 -2.71,4.01 -4.11,8.12 -4.11,13.54 0,8.13 4.11,14.94 9.53,20.36 6.77,5.41 14.9,8.13 23.07,8.13 4.01,0 6.72,-1.41 10.83,-1.41 4.01,-1.31 5.42,-2.7 5.42,-2.7 1.3,0 1.3,0 1.3,1.39 h 2.76 l 1.36,-14.94 h -4.12 c -1.3,5.42 -5.41,9.53 -9.43,10.83 -2.71,1.41 -4.11,1.41 -6.82,1.41 -6.77,0 -10.83,-1.41 -14.89,-5.42 -4.07,-4.11 -5.42,-9.52 -5.42,-16.25 0,-4.11 0,-8.21 2.71,-12.24 1.35,-4.1 4.06,-6.81 6.77,-9.52 4.06,-1.31 6.82,-2.7 10.83,-2.7 4.11,0 8.13,1.39 10.84,4.1 2.7,1.31 5.41,4.02 6.82,8.12 z m -109.83,27.09 v -32.5 c 0,-2.71 1.4,-5.42 2.71,-5.42 1.39,-1.39 2.7,-1.39 5.41,-1.39 v -2.72 h -20.27 v 2.72 0 c 2.71,0 4.02,1.39 5.42,1.39 1.31,1.31 1.31,2.71 1.31,4.02 v 39.31 c -1.31,1.41 -4.02,1.41 -6.73,1.41 v 4.01 h 17.56 l 33.9,-36.61 v 25.78 c 0,4.11 0,5.41 -2.7,6.82 -1.31,0 -2.71,0 -5.42,0 v 0 4.01 h 21.67 v -4.01 h -1.31 c -1.4,0 -4.11,0 -4.11,0 -1.31,-1.41 -2.71,-2.71 -2.71,-4.11 v -44.74 h -4.02 z m -43.34,6.82 v 4.01 h 27.09 v -4.01 h -1.36 c -4.06,0 -6.77,-1.41 -6.77,-5.42 v -33.9 c 0,-2.71 0,-4.11 1.35,-5.42 1.36,0 2.71,-1.39 5.42,-1.39 h 1.36 v -2.72 h -27.09 v 2.72 h 1.36 c 4.06,0 5.41,2.7 5.41,6.81 v 33.9 c 0,1.31 0,2.71 -1.35,4.01 0,1.41 -2.71,1.41 -4.06,1.41 z m -42.02,-48.85 -2.71,14.94 h 2.71 c 2.71,-8.12 8.12,-12.22 14.89,-12.22 4.07,0 6.77,1.39 8.18,4.1 1.3,1.31 1.3,2.71 1.3,4.02 0,2.71 -1.3,5.41 -4.01,8.13 -1.4,1.39 -4.11,2.8 -8.18,5.5 -5.41,1.31 -8.12,4.02 -9.47,5.42 -4.07,2.71 -5.42,6.72 -5.42,9.43 0,4.11 1.35,6.82 2.71,8.12 2.71,2.72 5.41,4.11 8.12,5.42 1.35,0 4.06,1.41 6.77,1.41 2.71,0 5.47,-1.41 8.18,-1.41 2.7,-1.31 4.01,-1.31 4.01,-1.31 1.4,0 1.4,0 2.71,1.31 h 1.4 l 1.31,-13.54 h -2.71 c -1.31,2.71 -2.71,5.42 -5.42,8.12 -2.71,1.41 -5.41,2.72 -8.12,2.72 -2.71,0 -4.07,0 -5.42,-1.31 -2.71,-1.41 -2.71,-2.71 -2.71,-4.11 0,-2.71 1.35,-5.42 4.06,-6.72 2.71,-1.41 5.42,-2.72 8.18,-4.11 4.01,-2.72 8.12,-5.42 10.83,-8.13 2.71,-4.01 4.02,-6.81 4.02,-10.84 0,-6.81 -2.71,-10.83 -8.13,-13.53 -2.71,-2.72 -5.42,-2.72 -9.48,-2.72 -1.35,0 -4.06,0 -8.13,1.31 -2.7,1.41 -5.41,1.41 -6.76,1.41 0,0 -1.36,0 -1.36,-1.41 h -1.35"
         style="fill:#221c17;fill-opacity:1;fill-rule:nonzero;stroke:none"
         transform="matrix(0.13333333,0,0,-0.13333333,0,533.33333)" />
      <path
         id="path10"
         d="m 2713.99,1860.46 v -21.77 c 0,-5.41 0,-8.12 1.36,-10.83 1.35,-2.7 2.71,-4.01 5.41,-4.01 2.72,0 5.42,2.7 5.42,6.72 1.36,1.4 1.36,4.11 1.36,9.53 v 17.64 c 0,10.84 -2.72,14.86 -6.78,14.86 -2.7,0 -5.41,-1.31 -6.77,-5.42 0,-1.31 0,-4.02 0,-6.72 z m -10.83,-12.24 c 0,9.52 1.35,16.25 5.41,20.36 2.72,5.41 6.78,8.13 12.19,8.13 6.78,0 12.24,-4.11 14.95,-12.24 1.35,-5.42 2.71,-9.43 2.71,-16.25 0,-12.23 -4.11,-20.36 -9.53,-24.37 -2.71,-1.41 -5.41,-2.72 -8.13,-2.72 -6.77,0 -12.19,4.03 -14.89,12.15 -2.71,4.1 -2.71,9.52 -2.71,14.94 z m -39.31,0 1.35,27.08 h 19 c 1.36,0 2.71,0 2.71,1.41 h 2.71 l -1.36,-9.53 h -20.35 v -10.83 c 2.71,1.39 5.41,1.39 6.77,1.39 8.17,0 13.58,-2.7 16.3,-9.52 1.34,-2.71 2.7,-5.42 2.7,-8.12 0,-8.13 -4.06,-13.55 -10.83,-16.25 -2.75,-1.41 -6.81,-2.72 -9.53,-2.72 -2.7,0 -5.41,0 -8.12,1.31 -2.71,1.41 -4.07,2.72 -4.07,5.42 0,2.71 1.36,4.11 4.07,4.11 2.71,0 4.06,-1.4 5.42,-4.11 1.35,-1.31 2.7,-2.7 5.42,-2.7 2.7,0 5.41,1.39 6.81,5.41 0,1.4 1.35,2.71 1.35,5.42 0,2.7 -1.35,6.81 -2.75,8.22 -2.71,2.7 -5.41,4.01 -8.13,4.01 -2.7,0 -4.06,0 -6.77,-1.31 z m -35.26,12.24 c 0,-6.83 1.35,-9.53 2.71,-12.24 0,-1.31 1.4,-1.31 4.11,-1.31 1.35,0 4.06,0 6.77,2.71 0,2.71 0,5.42 0,8.12 0,10.84 -1.36,14.86 -6.77,14.86 -2.71,0 -4.11,-1.31 -5.47,-4.02 -1.35,-2.71 -1.35,-5.42 -1.35,-8.12 z m -4.06,-39.33 -1.36,2.72 c 6.77,2.7 12.24,6.72 14.95,12.14 1.35,2.7 2.7,5.42 2.7,9.52 -2.7,-2.71 -5.41,-2.71 -8.12,-2.71 -5.46,0 -9.53,2.71 -12.23,6.82 -1.36,2.71 -2.72,5.42 -2.72,9.43 0,6.82 2.72,10.83 8.13,14.94 2.71,1.31 5.42,2.72 9.53,2.72 5.41,0 10.83,-2.72 13.54,-8.13 2.71,-4.11 4.06,-8.12 4.06,-14.95 0,-5.41 -1.35,-12.22 -4.06,-16.25 -2.71,-5.41 -6.77,-9.52 -12.19,-12.22 -4.06,-1.31 -8.17,-2.72 -12.23,-4.03 z m -24.37,55.58 v -47.45 c 0,-2.71 1.34,-4.1 2.7,-4.1 h 5.42 v -2.72 h -27.14 v 2.72 h 5.47 c 1.35,0 2.71,1.39 2.71,4.1 v 36.61 c -2.71,-2.71 -5.42,-4.11 -9.53,-4.11 l -1.35,1.4 c 6.81,4.02 12.23,8.13 16.3,13.55 h 5.42"
         style="fill:#221c17;fill-opacity:1;fill-rule:nonzero;stroke:none"
         transform="matrix(0.13333333,0,0,-0.13333333,0,533.33333)" />
      <text
         xml:space="preserve"
         id="text1"
         style="text-align:start;writing-mode:lr-tb;direction:ltr;white-space:pre;shape-inside:url(#rect1);display:inline;fill:#000000;fill-opacity:0;stroke-width:0" />
      <text
         xml:space="preserve"
         id="text4"
         style="font-style:normal;font-variant:normal;font-weight:normal;font-stretch:normal;font-size:53.3333px;font-family:'Century Schoolbook';-inkscape-font-specification:'Century Schoolbook, Normal';font-variant-ligatures:normal;font-variant-caps:normal;font-variant-numeric:normal;font-variant-east-asian:normal;text-align:start;writing-mode:lr-tb;direction:ltr;white-space:pre;shape-inside:url(#rect4);display:inline;fill:#0a0a0f;fill-opacity:1;stroke-width:0" />
      <text
         xml:space="preserve"
         id="text5"
         style="font-style:normal;font-variant:normal;font-weight:normal;font-stretch:normal;font-size:64px;font-family:'Century Schoolbook';-inkscape-font-specification:'Century Schoolbook, Normal';font-variant-ligatures:normal;font-variant-caps:normal;font-variant-numeric:normal;font-variant-east-asian:normal;text-align:start;writing-mode:lr-tb;direction:ltr;white-space:pre;shape-inside:url(#rect5);display:inline;fill:#0a0a0f;fill-opacity:1;stroke-width:0" />
      <path
         d="m 243.05988,179.4046 3.75,-5.375 h 3.04166 l 0.25,22.45833 h -2.75 q -2.58333,-10.33333 -7.66666,-15.08333 -5.04166,-4.75 -11.62499,-4.75 -5.5,0 -9,3.29167 -3.5,3.29166 -3.5,8.04166 0,2.95833 1.33333,5.20833 1.33334,2.20833 3.95834,3.625 2.66666,1.375 9.99999,2.95833 10.29166,2.25 14.41666,4.54167 4.16667,2.29166 6.20833,5.79166 2.04167,3.45833 2.04167,8.125 0,8.33333 -5.625,13.83333 -5.58333,5.45833 -14.45833,5.45833 -9.54166,0 -16.58332,-6.16667 l -4.70833,5.75 h -3 v -23.87499 h 3 q 1.74999,9.875 7.83333,15.58333 6.08333,5.70833 13.70832,5.70833 6.16667,0 10.04167,-3.625 3.91666,-3.66667 3.91666,-8.875 0,-2.95833 -1.45833,-5.16666 -1.45833,-2.25 -4.625,-3.75 -3.16667,-1.54167 -12.45833,-3.70833 -10.20833,-2.41667 -13.91666,-5.41667 -5.20833,-4.24999 -5.20833,-12.04166 0,-8.12499 5.16666,-13.29166 5.20834,-5.20833 13.29167,-5.20833 3.87499,0 7.37499,1.375 3.5,1.375 7.25,4.58333 z m 18.70832,-4.66666 h 50.12498 l 0.83334,21.33332 h -2.875 q -1.91667,-10.99999 -5.375,-14.33333 -3.95833,-3.87499 -11.29166,-3.87499 h -9.875 q -1.45833,0 -2.125,0.70833 -0.66666,0.66666 -0.66666,2.04166 v 22.29166 h 5.29166 q 4.41667,0 7.04166,-2.91666 2.625,-2.91667 2.83334,-9 h 3 v 27.79166 h -3 q -0.29167,-6.91667 -2.83334,-9.875 -2.54166,-2.95833 -7.04166,-2.95833 h -5.29166 v 23.49999 q 0,2.08333 1,2.95833 1,0.83333 3.45833,0.83333 h 6.41666 v 3.125 H 261.7682 v -3.125 h 6.33334 q 1.91666,0 2.70833,-0.75 0.83333,-0.79166 0.83333,-2.54166 v -48.99998 q 0,-1.66667 -0.875,-2.375 -0.83333,-0.70833 -2.95833,-0.70833 h -6.04167 z"
         id="text11"
         style="font-size:85.3333px;font-family:'Century Schoolbook';-inkscape-font-specification:'Century Schoolbook, Normal';white-space:pre;fill:#0a0a0f;stroke-width:0"
         transform="translate(8.9635851,0.64025608)"
         aria-label="SF" />
      <text
         xml:space="preserve"
         id="text12"
         style="font-style:normal;font-variant:normal;font-weight:normal;font-stretch:normal;font-size:85.3333px;font-family:'Century Schoolbook';-inkscape-font-specification:'Century Schoolbook, Normal';font-variant-ligatures:normal;font-variant-caps:normal;font-variant-numeric:normal;font-variant-east-asian:normal;text-align:start;writing-mode:lr-tb;direction:ltr;white-space:pre;shape-inside:url(#rect12);display:inline;fill:#0a0a0f;fill-opacity:1;stroke-width:0" />
      <text
         xml:space="preserve"
         id="text13"
         style="font-style:normal;font-variant:normal;font-weight:normal;font-stretch:normal;font-size:85.3333px;font-family:'Century Schoolbook';-inkscape-font-specification:'Century Schoolbook, Normal';font-variant-ligatures:normal;font-variant-caps:normal;font-variant-numeric:normal;font-variant-east-asian:normal;text-align:start;writing-mode:lr-tb;direction:ltr;white-space:pre;shape-inside:url(#rect13);display:inline;fill:#0a0a0f;fill-opacity:1;stroke-width:0" />
      <text
         xml:space="preserve"
         id="text14"
         style="font-style:normal;font-variant:normal;font-weight:normal;font-stretch:normal;font-size:85.3333px;font-family:Harrington;-inkscape-font-specification:'Harrington, Normal';font-variant-ligatures:normal;font-variant-caps:normal;font-variant-numeric:normal;font-variant-east-asian:normal;text-align:start;writing-mode:lr-tb;direction:ltr;white-space:pre;shape-inside:url(#rect15);display:inline;fill:#0a0a0f;fill-opacity:1;stroke-width:0"
         transform="translate(19.366146,8.9635851)"><tspan
           x="62.105469"
           y="381.47467"
           id="tspan1">storefront</tspan></text>
      <text
         xml:space="preserve"
         style="font-style:normal;font-variant:normal;font-weight:normal;font-stretch:normal;font-size:24px;font-family:Sans;-inkscape-font-specification:'Sans, Normal';font-variant-ligatures:normal;font-variant-caps:normal;font-variant-numeric:normal;font-variant-east-asian:normal;text-align:start;writing-mode:lr-tb;direction:ltr;text-anchor:start;fill:#0a0a0f;fill-opacity:1;stroke-width:0"
         x="74.447372"
         y="455.37415"
         id="text2"><tspan
           sodipodi:role="line"
           id="tspan2"
           x="74.447372"
           y="455.37415">VINTAGE FASHION ACCESSORIES</tspan></text>
    </g>
  </g>
</svg>
